/* XPM */
static char *_1fe4607042641588195cfa0d6e270d2[] = {
/* columns rows colors chars-per-pixel */
"60 60 7 1 ",
"  c None",
". c black",
"X c #420000",
"o c #460000",
"O c #A20000",
"+ c #FF2828",
"@ c #FF8D8D",
/* pixels */
"                                                            ",
"                                                            ",
"                                                            ",
"                                                            ",
"                                                            ",
"                                                            ",
"                                                            ",
"                                                            ",
"                                                            ",
"                            ..                              ",
"                           .X@.                             ",
"                           .X+.                             ",
"                          .oX+@.                            ",
"                          .oX+@.                            ",
"                         .OoX+@@.                           ",
"                         .OoX+@@.                           ",
"                        .OOoX+@@@.                          ",
"                        .OOoX+O@@.                          ",
"                       .OOOoX+O@@@.                         ",
"                       .OOOoX+OO@@.                         ",
"                       OOOOoX@OO@@@.                        ",
"                       OOOOoX@OO@@@.                        ",
"                      .OOOOoX@O@@@@@.                       ",
"                     .OOO+OoX@O@OO@@@.                      ",
"                     .OOO+OoX+O@O@@@@.                      ",
"                    .OOOO+OoX+O@O@@@@@                      ",
"                    .O+OO+OoX@@@O@@@@@                      ",
"                   .OO++O+OoX@@O@@@@@@.                     ",
"                   .OOO+++Ooo@@O@@OOOO.                     ",
"                  .OOOO+++Ooo@@OOOOOO@@o                    ",
"                  .OO+++OoooX@@@OOOO@@@.                    ",
"                  .OOO+OOoooo@@@@@@@@@@.                    ",
"                  .+++O++OOOO@OooOOoOoO.                    ",
"                  .++OO++OOOO@OooOOoOOO.                    ",
"                   .+O++OOOOX@OooOOOoO.                     ",
"                   .OO++OOOOX@OoooOOoO.                     ",
"                    .OOOOOO+X@OoooOOoo                      ",
"                    .OOOOO++X@OoooOOoo                      ",
"                     .OOO+++X@OoooOoo.                      ",
"                     .OOO+++X@OoooOoo.                      ",
"                      .O++++X@OoooOo.                       ",
"                      .O++++X@OoooOo.                       ",
"                       O++++X+OoooO.                        ",
"                       +++++X+OoooO.                        ",
"                       .++++X+Oooo.                         ",
"                       .++++X+Oooo.                         ",
"                        .+++X+OOOo                          ",
"                        .+++X+OOO.                          ",
"                         .++X+OO.                           ",
"                         .++o+OO.                           ",
"                          .+o+O.                            ",
"                          .+o+O.                            ",
"                           .O+.                             ",
"                                                            ",
"                                                            ",
"                                                            ",
"                                                            ",
"                                                            ",
"                                                            ",
"                                                            "
};
