/* XPM */
static char *_473d9439b8b4a47882a597385888162[] = {
/* columns rows colors chars-per-pixel */
"60 60 247 2 ",
"   c None",
".  c #1A252E",
"X  c #16242E",
"o  c #1C2632",
"O  c #1C2A35",
"+  c #1E2C3A",
"@  c #152734",
"#  c #172D3C",
"$  c #242C38",
"%  c #3B2C33",
"&  c #23313D",
"*  c #2C373E",
"=  c #34333E",
"-  c #3C343A",
";  c #33393D",
":  c #383437",
">  c #2A352F",
",  c #5A2B1C",
"<  c #4B2C2B",
"1  c #562727",
"2  c #4C2C33",
"3  c #443334",
"4  c #43353D",
"5  c #4A3737",
"6  c #563638",
"7  c #50322E",
"8  c #65292C",
"9  c #6A383A",
"0  c #6D312D",
"q  c #67221D",
"w  c #2C403E",
"e  c #664339",
"r  c #243644",
"t  c #293643",
"y  c #253945",
"u  c #2C3A45",
"i  c #263B4A",
"p  c #2B3C4B",
"a  c #26364B",
"s  c #323643",
"d  c #3C3643",
"f  c #333B44",
"g  c #323D4B",
"h  c #3E3B49",
"j  c #2B3D51",
"k  c #323F50",
"l  c #1F3241",
"z  c #463943",
"x  c #563B40",
"c  c #653D43",
"v  c #7C3940",
"b  c #2D414D",
"n  c #2C4146",
"m  c #32424D",
"M  c #3A404C",
"N  c #2E4251",
"B  c #2B4457",
"V  c #334453",
"C  c #3A4652",
"Z  c #354856",
"A  c #3B4A56",
"S  c #364A5A",
"D  c #3B4D5C",
"F  c #344658",
"G  c #3D515D",
"H  c #37525D",
"J  c #3D4F61",
"K  c #3E5264",
"L  c #3E576C",
"P  c #434E5B",
"I  c #444954",
"U  c #43525D",
"Y  c #4B545D",
"T  c #47585F",
"R  c #5C585C",
"E  c #4E464C",
"W  c #684549",
"Q  c #774A49",
"!  c #614B53",
"~  c #764E55",
"^  c #685558",
"/  c #795758",
"(  c #6A564D",
")  c #445564",
"_  c #4A5664",
"`  c #445966",
"'  c #4B5965",
"]  c #44566A",
"[  c #4A5669",
"{  c #45596A",
"}  c #4A5B6B",
"|  c #535563",
" . c #535A65",
".. c #525C6A",
"X. c #595967",
"o. c #4B5D71",
"O. c #435A71",
"+. c #565E70",
"@. c #554D62",
"#. c #645A63",
"$. c #6B5C62",
"%. c #745D61",
"&. c #5B626C",
"*. c #54616D",
"=. c #566271",
"-. c #4E6071",
";. c #686870",
":. c #75605D",
">. c #B8381F",
",. c #8A3D33",
"<. c #BC3E24",
"1. c #BC3E28",
"2. c #C13E2A",
"3. c #854336",
"4. c #9A483B",
"5. c #924A36",
"6. c #BC4128",
"7. c #A44639",
"8. c #B74839",
"9. c #BA533B",
"0. c #AB503E",
"q. c #C4432B",
"w. c #C6462A",
"e. c #C94A32",
"r. c #CD5234",
"t. c #CB593B",
"y. c #D3553C",
"u. c #D65A3C",
"i. c #D6623E",
"p. c #E1613E",
"a. c #884D4B",
"s. c #85554B",
"d. c #925245",
"f. c #825855",
"g. c #955B59",
"h. c #A64B46",
"j. c #A95746",
"k. c #B75547",
"l. c #BC5A56",
"z. c #AF5E56",
"x. c #9D6558",
"c. c #B7624D",
"v. c #AD6354",
"b. c #BD6555",
"n. c #B56358",
"m. c #B5716B",
"M. c #9E6365",
"N. c #D55C43",
"B. c #DC5D43",
"V. c #D95D4D",
"C. c #D85E51",
"Z. c #C85745",
"A. c #E25E48",
"S. c #E15D50",
"D. c #CA654E",
"F. c #D56242",
"G. c #DB6344",
"H. c #DD644C",
"J. c #DD6B4C",
"K. c #D5674A",
"L. c #C86959",
"P. c #DC6453",
"I. c #DC6B54",
"U. c #D36C5A",
"Y. c #DC6D5B",
"T. c #D46755",
"R. c #CC745C",
"E. c #C8755D",
"W. c #DC7354",
"Q. c #D4745B",
"!. c #DC735C",
"~. c #DB7A5B",
"^. c #D57456",
"/. c #DE714C",
"(. c #E36445",
"). c #E2654B",
"_. c #E26B4D",
"`. c #E76A4A",
"'. c #E4724E",
"]. c #E46B52",
"[. c #E36C5A",
"{. c #E76A55",
"}. c #E47355",
"|. c #EA7454",
" X c #E47955",
".X c #E3745A",
"XX c #EB755B",
"oX c #E47C5C",
"OX c #EB7B5C",
"+X c #EA7B55",
"@X c #F17A5B",
"#X c #C77564",
"$X c #DD7562",
"%X c #DC7C64",
"&X c #D77867",
"*X c #D4736C",
"=X c #E37463",
"-X c #E47C62",
";X c #EA7D63",
":X c #E97B6A",
">X c #F27D62",
",X c #E7786D",
"<X c #E4825D",
"1X c #EB825D",
"2X c #E18055",
"3X c #F4825D",
"4X c #DD8564",
"5X c #DD8A66",
"6X c #DC836A",
"7X c #DD8A6C",
"8X c #D5866A",
"9X c #DB8B78",
"0X c #DE9274",
"qX c #E48364",
"wX c #EB8464",
"eX c #E58C65",
"rX c #EB8A65",
"tX c #E4846B",
"yX c #EC856B",
"uX c #E48B6C",
"iX c #EC8B6B",
"pX c #F48B6B",
"aX c #F38867",
"sX c #F2916B",
"dX c #E38B72",
"fX c #EB8D72",
"gX c #E58876",
"hX c #F38B78",
"jX c #EA9679",
"kX c #F5977A",
"lX c #EA946D",
"zX c #EFA27B",
"xX c #DE805A",
"cX c #D89491",
"vX c #E99786",
"bX c #F99A87",
"nX c #F69C92",
"mX c #EE8C86",
"MX c #ECA28D",
"NX c #F9A38A",
"BX c #FCA494",
"VX c #F9A89A",
"CX c #FDB29B",
"ZX c #FFB193",
"AX c #EDA596",
"SX c #FDAAA1",
"DX c #FDB8A7",
/* pixels */
"                              r i n f                                         . : ; u y +                               ",
"                            V D y u = =                                   # @ O - 4 g m F a g                           ",
"                        V ) ' A n f d z $ .                   . . . . o @ @ @ . z % * p ) } ) m p y                     ",
"                g V U ` } } U u ; : ! z d d f g p p i i u f f f g u f g p p u ; W x ; i Z } ` { ' U g u                 ",
"                p r m ) ) Z p s z W ~ 2 4 d s f s s f f s ; ; * u u f u f f ; 3 1 / : w n y G U C p g m                 ",
"              m u y y p p p p d < a.v 8 1 < < < 7 2 7 7 7 7 3 3 3 3 < 2 2 2 < 1 q a.x > n r m i n t p *                 ",
"              ..p m b y p p p - , 4.7.k.j.j.c.c.c.c.b.b.b.b.b.b.b.b.l.l.l.l.k.k.8.7.Q % g V a a y p m g *.              ",
"            U ;.y y p Z D b t - , ,.9.V.K.F.F.F.G.G.G.H.H.H.P.H.H.).A.S.S.C.V.V.V.7.0 6 = a j ) p y y C *.U             ",
"          P ..=.r p p Z } p p - 9 0.C.C.P.H.N.).`.(.).H.].H.].].J._.(.`.H.G.G.B.A.t.4.0 4 g y ` p m p C ' Y             ",
"          ' _ *.p r p p ) p p 4 a.gXbX,XC.P.].N.H.).)._.].{.].H.J.J.(.`.J.J.(.p.u.N.8.,.3 * b H p p p D ' Y '           ",
"          _ ) ..y b N y b ) g - d.&XmXbXhXU.U.T.P.{.{.].{.].].}.W./.`.`.G.G.u.p.i.K.7.,.z V ] B p p p ) ' U  .          ",
"          _ ' ' p r r V Z ' t - 3.D.T.C.U.tXhXyX=XY.[.I.XX].W.W.^.J.].{._._.(.(.u.I.h.0 % N { B p p p ' _ ) P           ",
"            ' ) N b N l Z D P 3 5.Z.C.V.P.I.T.I.:XhXfX~.^.~.~.^.-X=X[.[.{.H.A.`.G.K.7.0 E H H i i p p ' _ '             ",
"            D } p i N S ) p g % 3.t.).S.).].H.}.I.!.oXkXqX%XQ.uXBXhXY.Y.=X[.].)._.K.7.1 : y b { p p p ) ) T             ",
"            C } Z V r i p p g 3 ,.9.V.{.{._._.}.|.XXW.~.!.BXCXBX&XgXkXZXNX~.I.J.).V.7.8 z b i a p p p ) _               ",
"            ) ) D i p V ` D A - 0 k.N.(.)._.|._.@X_.;XyX-XtXjXjXtX-XQ.kXkXQ.^.H.).P.7.1 z G { J p p p } '               ",
"              ) D p y V D } m - 0 9.F.(._._._.].XXXX;X-XqXiXyXqXwX-X:X$XBX%XT.I.{.C.4.7 - ' K L p p p } )               ",
"              ) D p p p Z G b - 8 j.N.(._.}._.|.|.}.;XiXrX<XqXwX XoX-X=XbXbXuXD.C.Y.3.7 : D K j i p p ` )               ",
"              ' ) p p V Z V p d 8 h.e.q.r.B.B.).@XXXOXrXeXeXrXaXrXwX;X$X&XgXbXbXhX*XQ 5 ; m y D p p b ) '               ",
"              _ } y p V D b y h 6 h.Z.y.H.I.y.y.t.}.aXiXeXeXrXrX1X X.X:XQ.R.R.&XbXmXQ 5 * y V D b p m U '               ",
"              Y  .t u m C m p s < d.T.K.W.W.t.t.t. XyXqXqXsXpX1XwXwXOX.X.X!.W.T.,X*Xc 4 f p V V p u C U '               ",
"               . .f u y p V N = 7 d.^.G.K.^.W.wXpXwXoX~.<XrX1X}.K.oX>XXXXX}.].I.T.l.c z g S j V p u Y _ _               ",
"              | X.f f g p V N s < 3.K.G.J.}.oXaXaXwXwXwX<XW./.W.-X-X;X}.|.'._.J.Y.#X6 = p B K i g f X.| I               ",
"              I X.s s A k j a f 7 3.D.).].XXOXaXOXoX-XwXrXrXwXaXqXqXwX+X|.3X3X XbXm.6 g p B i Z f s &.Y                 ",
"                 .M g _ } J a g z 9 #XP.[.XX>X+X X+X1XqXeXeXuXqXrX<X X+X|.'.J.^.nXM.4 u p Z _ Y P s ;.P                 ",
"                &.I P } ) { ] V s c cXmX,X!.$XW.<XqXqXqX4X5XuXuXqXwX1XOX|.}.W.U.9XM.4 g P ) Y '  .f ;.|                 ",
"                &.U } } ) { o.D s 6 cXBXBXnXVXAXvXMXBXvXuX5XeXiXqXqX;XoX}.}..X!.*Xg.4 I  ..._ ' _ ..;.C                 ",
"                .._ _ ) } ) ) } Y 5 m.gXnXVXSXVXvX9XgXBXZXjX7X6X7X6X%XtXwX-X!.U.mXa.x Y _ _ } _ U ) ..C                 ",
"              U _ ) ) } } ) S }  .E z.L.$X=X!.$X^.tXgX&X9XVXDXDXDXCXMX9X6X$X~.&X9Xa.E ' ) K O.L } ) _ '                 ",
"              } } ] } o.K } ] )  .^ z.T.[.[.].OXoX X-XgXbXVXVXVXDXDXDXSXCXBXjXR.m.Q R T ) O.L L ] } G ) } V             ",
"              ` { ] { K K } } ) Y ( j.T.P.]..X.X X<XwXyXqX5X5X0X8XMXDXDXSXVXVXSXm.Q ^ ' _ o.] K { ` ` } ) ' C           ",
"                ) ` K V ) ] ] ' Y ( j.%XU.Y.:X$X~.~.qXtXeXeXeXeXjX9X9XvXnXnXnXVXcX~ R ..) [ ] D V } )                   ",
"                  u u V ) ] ] } Y ^ s.AX&XvXVXSX0X8X8XgXfXeXlXlXjXuX8X%X$X.X].$XcX/ #. ._ } { K p p                     ",
"                    u V } { ] { Y ! s.AXNXVXSXVXMXCXSXvXdXlXjXlXeX4X~.~..X].`.!.m.^ #...[ { { ` m                       ",
"                    t m ` { { ] | %.a.L.$X:X,X$X7X4X6XjXbXkXzXzXkXiXqX-XXX]._.U.g.^ X.[ } { { ) p                       ",
"                      g D { { [ @.~ a.b.Y.[.=X:XoXxXtXfXfXuX7X5XiXwXqXoX+X}._.R.f.$.| _ o.{ { V                         ",
"                        V { { { ..^ ~ n.Y.].{.{.+XaXpXyX;XiXfXfXwXOXoXoX.X}.}.R.f.#. .} { { o.i                         ",
"                        p ) { { } | ( x.D.XX>X@X3X+XOXaXpXyXyXyXaXaXwX-XoX XW.E./ R ..} { ] o.p                         ",
"                        y S { { } Y ^ x.Q.J.}.OX+X1XwXwXyXiXuXtXwXwX-XoXoX XW.#X/ R ..] O.] ) p                         ",
"                          p ` { {  .^ f.R. XoXoX<X<XqXqXuXuXdXdXtXqXqX-X-X.XW.#Xf.#.[ ) o.] V t                         ",
"                          p D } [ X.#.f.#X!.$X%X%X4X5X5X7XdX0X7XtXtX6X%X:XyXI.#Xf.#.| _ ] } p &                         ",
"                          r } ) [ ..X./ #X^.%XtXfXNXZXNXjX7X0XjXNXfX6X6XhXkX=X#Xf.#.| } } ` i                           ",
"                          m ) ) } ..X.^ #XtXbXBXbXgX5XuXfXfXiXuX%XdXbXbXhX:XT.L.f.$. ..._ ) u         m                 ",
"                          p ) ) } ..&.%.#X^.$X%XgXtXtXeXwXyXkXbXfXqX4X%X=X-XY.b.f.$.| } ) S m .   + m ' *.V o o         ",
"          } } } }         p ) } _ ..=.%.#X.X!.$X,X:XqXrXiXfXiXiXwXoXqXqX$X!.I.v./ #. .} ] V u . + p ) ' U ' ' V + +   . ",
"    } } ) ) } K } ' P   + r { } +.+.+.^ E.J..X.X=X;XrXrXrXpXiXiXaX1XoX~.!.!.!.v./ &...} } V & X r ) -.{ } } ' ) ) U m u ",
"p S D ) } } { } ' ' ' V X p V ) [ ..=.%.R.'.}..XOX X2X<XrXiXiXiX>X@XOX X XI.^.v./ &.*.] { j + $ ) ` } { ) ) { ` ` U m & ",
"t t p V G ) { ) { } ) } + r V S [ } =.%.R._.}.|.}. X1XsXrXqX~.~.OX@X+X}.oXW.W.v.:.&.} D J p + g } { ) ) } } ) S p u & + ",
"        p m ) } } ) ) } U r p ) p S  ./ R._.}.'.}. X}.wXsXiXoXoXK.F.F.+X}.I..Xj.%._ V V } y @ } ) } ] ] ) ) p t o o     ",
"          r V D J } { ] ) @ p ) { } X./ R._.]._.|.}.}. XoXpXsXoXF.F.J.}._._..Xn.^ -.o.} A y @ ) ) ] D ) } y $ o         ",
"            p V K } ) { } & y } { } X./ R.H._.|._.}.XX.X}.wXpXwX}.t.t.].|.].H.z.$.} o.] D t Z ) ) F ) V V g X $         ",
"            p N { ] { { D S r } ] ) | ~ R.].)._._.|.XX}.}.}.oXpX3X|._.t.t.].I.n.$.) N F D r } ` { o.) G p p o           ",
"            p p { { } K p G p ) { } X.~ L._.H._._._.H.].XX}.}.OX|.|.|.J._.].N.7.^ } a S V V ) { { { { ) p y X           ",
"          & p p { { { ] Z p V K ` G | ~ L._.G.G._.B.N.y.e.t._._.|.(.u.G.).y.6.h.^ _ V N p } ) } ] D -.V p p +           ",
"        t y V p K ] ) { ] i b G { p I W D.).y.r.r.r.A.].u.r.r.e.e.(.).G.u.q.6.4.! D j a p { } ] } } ) p p r V X         ",
"      O p p p p V { { K ` ` i V ` p I W 7.<.q.r.(.B.B.).).y.e.u.r.`.).).B.q.6.7.! } a { p ) } ] ) N p p b p y + o       ",
"    o O t g p p a } ] { { ` Z b ` m = c 7.<.<.q.6.q.w.e.w.e.y.A.u.(.H.).y.1.<.4.! [ } ] p } { K i i D y b p V & + X     ",
"o $ & t V A p p a { ] { { ` S b ` m = c 7.6.<.<.6.q.q.q.q.q.e.r.(.B.y.N.u.e.6.,.! _ ] K i } { ) j V V i b p ) p t & $ . ",
"$ t y g ) ) p p p ) ) { ` ` D i ` A h W 7.<.<.<.6.1.2.2.2.q.q.q.q.q.1.q.w.q.6.4.! _ ) D a { { ) D ) N p p p } b p u t . ",
"& p u p ) ) p p p S ) } ) { G i ` _ @.Q 7.<.<.6.<.<.1.1.2.1.1.1.>.<.1.1.<.>.<.4.! [ ) Z i { { ] ] } p p p p } b p u g O "
};
