/* XPM */
static char *result[] = {
/* columns rows colors chars-per-pixel */
"60 60 79 1 ",
"  c black",
". c #010000",
"X c #010101",
"o c #020000",
"O c #020202",
"+ c #030202",
"@ c #040101",
"# c #060101",
"$ c #070505",
"% c #070606",
"& c #090202",
"* c #080203",
"= c #130406",
"- c #1A0304",
"; c #120F0F",
": c #200102",
"> c #220102",
", c #220204",
"< c #260204",
"1 c #2B0305",
"2 c #2D0608",
"3 c #2C0609",
"4 c #22080B",
"5 c #2B0A0E",
"6 c #2D080C",
"7 c #2E080C",
"8 c #3A070C",
"9 c #35090C",
"0 c #38080B",
"q c #300B10",
"w c #340C11",
"e c #3B0B10",
"r c #3B0B11",
"t c #3B0C10",
"y c #390E13",
"u c #3F1015",
"i c #3C1317",
"p c #222222",
"a c gray16",
"s c #48050B",
"d c #420D13",
"f c #4D0C13",
"g c #441117",
"h c #491219",
"j c #4D1319",
"k c #52131A",
"l c #53151C",
"z c #5B171E",
"x c #63151D",
"c c #641A22",
"v c #671A23",
"b c #6C1C24",
"n c #6C1D25",
"m c #6E1D26",
"M c #721E27",
"N c #781C26",
"B c #741F28",
"V c #772029",
"C c #782029",
"Z c #7B212A",
"A c #7C212B",
"S c #605254",
"D c #81232C",
"F c #85242E",
"G c #86252F",
"H c #89252F",
"J c #8C2631",
"K c #8F2732",
"L c #902732",
"P c #912832",
"I c #932833",
"U c #952934",
"Y c #962934",
"T c #972935",
"R c #972A35",
"E c gray70",
"W c #B4B4B4",
"Q c gray85",
"! c None",
/* pixels */
"!!!!!!!!!!!!!!!!!!!!!!!!!!!!!!!!!!!!!!!!!!!!!!!!!!!!!!!!!!!!",
"!!!!!!!!!!!!!!!!!!!!!219999999999999912!!!!!!!!!!!!!!!!!!!!!",
"!!!!!!!!!!!!!!!!!!!!!trrddddddddddddde0!!!!!!!!!!!!!!!!!!!!!",
"!!!!!!!!!!!!!!!!!!!2txnMDGGGGGGGGGGGGGN9!!!!!!!!!!!!!!!!!!!!",
"!!!!!!!!!!!!!!!!!!!0dMADIYYYIHGGGGGGGGZj0!!!!!!!!!!!!!!!!!!!",
"!!!!!!!!!!!!!!!!!20xMHLPUUUYHlggggggggjZN9!!!!!!!!!!!!!!!!!!",
"!!!!!!!!!!!!!!!!!<enALYUUUYTGgwwwwwwwwgGGe<!!!!!!!!!!!!!!!!!",
"!!!!!!!!!!!!!!!!!tdMDPUUUIHGVy55555555yVAjt!!!!!!!!!!!!!!!!!",
"!!!!!!!!!!!!!!!>txMHPUUUYHlgy=********=ylZN0>2!!!!!!!!!!!!!!",
"!!!!!!!!!!!!!!>3rbALUUUIHVy54*        *4yCZje0!!!!!!!!!!!!!!",
"!!!!!!!!!!!!!!<6unALUUYHly=**          *=ylZFN9!!!!!!!!!!!!!",
"!!!!!!!!!!!!!!<6unALUUYFg5*             *5gGRFe:!!!!!!!!!!!!",
"!!!!!!!!!!!!!!trhmALUUYFg5*             *5gFTGe>!!!!!!!!!!!!",
"!!!!!!!!!!!!20xbmBALUUYFg5*            .*5gFTGe>!!!!!!!!!!!!",
"!!!!!!!!!!!!0dmCVVZJPUYFg5* *pp*      @;;6gFTGe>!!!!!!!!!!!!",
"!!!!!!!!!21txmBVVVCZDPYFg5* pEEp      ;SSigGTGe>!!!!!!!!!!!!",
"!!!!!!!!!<6rnCVVVVVVALYFg5* aQQa     .$!!tgGTGe>!!!!!!!!!!!!",
"!!!!!!!!!17unCVVBmmBALYFg5* aQQa     .$!!tdGTGe>!!!!!!!!!!!!",
"!!!!!!!!!<3rbCCCmhhmALYFg5* aQQa      $!!tdGRGe:!!!!!!!!!!!!",
"!!!!!!!!!!>0xbnncuunALYFg5* pWWp      ;SSigDIDe:!!!!!!!!!!!!",
"!!!!!!!!!!!!0ruuuwunALYFg5* *pp*      @;;6uMAMe:!!!!!!!!!!!!",
"!!!!!!!!!!!!:3667wunALYFg5*             *5unCne:!!!!!!!!!!!!",
"!!!!!!!!!!!!!:>>03unAJPFly=**           *5unCne:!!!!!!!!!!!!",
"!!!!!!!!!!!!!!!!!0rmCZAAFVy54*          *5unCbe:!!!!!!!!!!!!",
"!!!!!!!!!!!!!!!!!<rcmBVZJFjuy=*        *=whcbx1!!!!!!!!!!!!!",
"!!!!!!!!!!!!!!!!!<6uhmCCAZmncy4*      *4ycchr0!!!!!!!!!!!!!!",
"!!!!!!!!!!!!!!!!!0rghcnnnmVCmhy=******=yhccu6<!!!!!!!!!!!!!!",
"!!!!!!!!!!!!!!!<txMDZhuuuhmCBmcy555555ycchuy6>!!!!!!!!!!!!!!",
"!!!!!!!!!!!!!!>3rbAIGgwwwunVVCnuwwwwwwunnuww6>!!!!!!!!!!!!!!",
"!!!!!!!!!!!!!!trhmAPHlgggjBAAABjggggggjBMhuy6>!!!!!!!!!!!!!!",
"!!!!!!!!!!!!!9xbmBALIHFFFGKLLLKGFFFFFFGKHMcu6>!!!!!!!!!!!!!!",
"!!!!!!!!!!!!>enCCZDPUYYYYYUUUUUYYYYYYYYYPDMu6>!!!!!!!!!!!!!!",
"!!!!!!!!!!!!<rnVZJPUUUUUUUUUUUUUUUUUUUUUUIDg6>!!!!!!!!!!!!!!",
"!!!!!!!!!!!!1rnVALUUUUUUUUUUUUUUUUUUUUUUUYFg6>!!!!!!!!!!!!!!",
"!!!!!!!!!!!!tdmVALUUUUUUUUUUUUUUUUUUUUUUUYFg6>!!!!!!!!!!!!!!",
"!!!!!!!!!2<txmBVALUUUUUUUUUUUUUUUUUUUUUUUYFg6>!!!!!!!!!!!!!!",
"!!!!!!!!!<3rbCZADPUUUUUUUUUUUUUPLPUUUUUUUYFg6>!!!!!!!!!!!!!!",
"!!!!!!!!!17unAJLPUUUUUUUUUUUUUPDADPUUUUUUYFg6>!!!!!!!!!!!!!!",
"!!!!!!!!!0ygnALYUUUUUUUUUUUUUIJVMVJIUUUUUUFg6>!!!!!!!!!!!!!!",
"!!!!!!!!2klzMALUUUUUUUUUUUUUIHAzlzAHIUUUIHCg6>!!!!!!!!!!!!!!",
"!!!!!!!-ivMBVALYUUUUUUUUUUUUPAmgygmAPUUULAmu6>!!!!!!!!!!!!!!",
"!!!!!!!>enCVVZJLPUUUUPLPUUPLJAnuwunAJLPULAnu6>!!!!!!!!!!!!!!",
"!!!!!!!>enCVVCZADPUUPDZDPPDAZCnuwunCZADPLAnu6>!!!!!!!!!!!!!!",
"!!!!!!!-8vMBVVCCALUIKACAKKZVVBvuwunCCCAKKAnu6>!!!!!!!!!!!!!!",
"!!!!!!!!!flzMZFGHIIHGGGGGFCVMzlywunZFGGGFZnu6>!!!!!!!!!!!!!!",
"!!!!!!!!!<3dbAKIIUPAAKIKACCCmgywwunAKIKACCnu6>!!!!!!!!!!!!!!",
"!!!!!!!!!!:0xMHPLLJZZJPJZBmncy5wwunAJPJZVCnu6>!!!!!!!!!!!!!!",
"!!!!!!!!!!!!9dMAAAZCCZAZCmhuy==qwunCZAZCVCnu3:!!!!!!!!!!!!!!",
"!!!!!!!!!!!!28vMBVVBBVVVBvyq5**5qyvMMMBVVBv8,2!!!!!!!!!!!!!!",
"!!!!!!!!!!!!!!flzMMzzMCMzj4==.@@44jlllzMMzf!!!!!!!!!!!!!!!!!",
"!!!!!!!!!!!!!!218xx00xMvu5*#@$XXX$3yyygnv8-!!!!!!!!!!!!!!!!!",
"!!!!!!!!!!!!!!!!!ss!!slj4=#.$!!!!!&4qwyjf!!!!!!!!!!!!!!!!!!!",
"!!!!!!!!!!!!!!!!!::!!>37*  @+!!!!!+@5ww3<!!!!!!!!!!!!!!!!!!!",
"!!!!!!!!!!!!!!!!!!!!!!:,o  @+!!!!!+@453,!!!!!!!!!!!!!!!!!!!!",
"!!!!!!!!!!!!!!!!!!!!!!!!&. @+!!!!!+@*@&!!!!!!!!!!!!!!!!!!!!!",
"!!!!!!!!!!!!!!!!!!!!!!!!% @@+!!!!!+o &-!!!!!!!!!!!!!!!!!!!!!",
"!!!!!!!!!!!!!!!!!!!!!!!!!! @+!!!!!+$!!!!!!!!!!!!!!!!!!!!!!!!",
"!!!!!!!!!!!!!!!!!!!!!!!!!!XoO!!!!!++!!!!!!!!!!!!!!!!!!!!!!!!",
"!!!!!!!!!!!!!!!!!!!!!!!!!!%O!!!!!!+O!!!!!!!!!!!!!!!!!!!!!!!!",
"!!!!!!!!!!!!!!!!!!!!!!!!!-!!!!!!!!OO!!!!!!!!!!!!!!!!!!!!!!!!"
};
