/* XPM */
static char *_ec1cf342fba4260b29affa91ca139e3[] = {
/* columns rows colors chars-per-pixel */
"60 60 149 2 ",
"   c #040406",
".  c #060807",
"X  c #080807",
"o  c #060708",
"O  c #080709",
"+  c #07080A",
"@  c #0A0B0C",
"#  c #0E100F",
"$  c #0E0E11",
"%  c #100F12",
"&  c #0F1012",
"*  c #121315",
"=  c #161619",
"-  c #18171A",
";  c #17181A",
":  c #1A1B1D",
">  c #1E201F",
",  c #1E1E21",
"<  c #201F22",
"1  c #1F2022",
"2  c #212325",
"3  c #222425",
"4  c #232426",
"5  c #232526",
"6  c #242426",
"7  c #242527",
"8  c #222325",
"9  c #262628",
"0  c #262729",
"q  c #252629",
"w  c #28272B",
"e  c #26282A",
"r  c #27282A",
"t  c #27282B",
"y  c #28282A",
"u  c #28282B",
"i  c #29282B",
"p  c #28292B",
"a  c #29292B",
"s  c #29292C",
"d  c #2A292C",
"f  c #292A2C",
"g  c #292B2C",
"h  c #292B2D",
"j  c #2A2B2D",
"k  c #2B2B2D",
"l  c #2C2B2D",
"z  c #2B2C2E",
"x  c #2B2D2E",
"c  c #2C2D2F",
"v  c #2D2E2F",
"b  c #2A2B2D",
"n  c #2E302F",
"m  c #2D2E30",
"M  c #2D2F30",
"N  c #2E2E30",
"B  c #2D2E31",
"V  c #302F32",
"C  c #2F3132",
"Z  c #2F3032",
"A  c #313234",
"S  c #323335",
"D  c #323435",
"F  c #333436",
"G  c #333536",
"H  c #363537",
"J  c #353636",
"K  c #323335",
"L  c #343539",
"P  c #353738",
"I  c #363739",
"U  c #373739",
"Y  c #35363A",
"T  c #36373B",
"R  c #353639",
"E  c #37383A",
"W  c #37383C",
"Q  c #37383A",
"!  c #38393B",
"~  c #393A3C",
"^  c #3A3B3D",
"/  c #3B3D3E",
"(  c #3C3D3F",
")  c #3A3B3D",
"_  c #3D3F40",
"`  c #3E3F41",
"'  c #3D3E40",
"]  c #403F41",
"[  c #3F4042",
"{  c #414143",
"}  c #424144",
"|  c #414244",
" . c #424345",
".. c #434446",
"X. c #424345",
"o. c #454648",
"O. c #47484A",
"+. c #47494B",
"@. c #494A4C",
"#. c #4A4B4D",
"$. c #4C4B4D",
"%. c #4C4E4F",
"&. c #4A4B4D",
"*. c #4E504F",
"=. c #4D4E50",
"-. c #4F4F51",
";. c #4D4E50",
":. c #4F5052",
">. c #4F5055",
",. c #4F5152",
"<. c #505256",
"1. c #545657",
"2. c #525355",
"3. c #565759",
"4. c #57595A",
"5. c #57595A",
"6. c #5C5E5F",
"7. c #5A5B5D",
"8. c #5D5E61",
"9. c #5E6162",
"0. c #626365",
"q. c #656768",
"w. c #656769",
"e. c #686769",
"r. c #66686A",
"t. c #6A6B6C",
"y. c #6D6E71",
"u. c #6F7073",
"i. c #727475",
"p. c #757678",
"a. c #767879",
"s. c #767879",
"d. c #7B7C7E",
"f. c #7D7E81",
"g. c #7F8183",
"h. c #838486",
"j. c #86878A",
"k. c #898B8C",
"l. c #898A8D",
"z. c #8E8F92",
"x. c #929395",
"c. c #949597",
"v. c #919193",
"b. c #9B9D9F",
"n. c #9B9B9D",
"m. c #9B9CA0",
"M. c #A2A4A6",
"N. c #A6A7A9",
"B. c #ACACAE",
/* pixels */
"+ o $ +       @.O.F c.7 @ + : = W >.2.I *       m & * $ $ @ @ $ = 1 ; o @ : + o @ x.6.1 2 , ( 4.8 v   * g = = = ; : @   ",
"* @ +   o : @.( I :.| = + + + $ 8 g I : * @ +   2 : : * $ @ @ = * * @ : * = +   g q.g S 8 7 ^ g 9 ,   C I = 9 * $ : = * ",
"; & o : : m 2 @ 5 F * = & + @ * 2 2 : : = o @   * , 2 : * * 1 I : $ + & @ + @   i i F z _ S 1 1 , +   i { $.$ : + : * * ",
"+ * + | J I * * 2 2 @ & & & & + 5 1 : : *   + + o ^ I -./ | F i O             $ ; @ k.: ! 7 : : , *   * 7 : * & @ $ @ @ ",
"    $ : m i $ 2 * 8     & * +   + @ + +         + 1.-.J E @               @ * i * @ b.: z * : : 8 = o o $ g : I @ O + @ ",
"2 = $ @ @ @ $ @ @ @ : + : &                     + @ o           @ : : @ @ + + + o E a., , : 1 5 5 * o o _ 8 i ; o + + + ",
"; = = = 1 o o @ & @ @                     o @   @ + * 5 J ^ ..S * 7 2 :       o o { %.: 1 1 5 8 1 = o + : r C   @       ",
": @ @ * : , $ g 5 2 * o o     + @ . + + +   o * l , @ $ , z F ^ v g 2 =       O + | -.: : 1 ; 8 : = o o : @ o           ",
"+ $ * * & $ = : : * * @ @   + & $ 5 + * 2 : o m 2.@.| 9 , 2 , : : 9 =           + $ A = : = = * i + o o &     o       o ",
"        + +             + , I +...i o + : * @ + o r : r   %., m i $           + o   + * ; $   o o       @ o + @ @ * + + ",
"                    ( h.d.t.* @ @ & @ $ = *         o $ 9 +     @ v ,     o 1 : ..[ o                 & z o   o   + + + ",
"    = &.9 * 7 v 9   o.i./ C @ @ * , z S ( E +   + @ & @ @   m r +     * : ^ @ 9 S S   o       : , = * *     + & + + o @ ",
": p.{ @.E :.+.O._ o.: @ o + : m ^ * + : : * $ r @.& ^ o g 7 g 9 F g 1 +   6 / = * * * 7         o 5 2.C =       o + + + ",
": 2.& : * & $ @ ..= o., * 1 : r @     @ o @ @ @ 9 : g   z = 1 z 2 5 5 *   , , * 2.k.1.7.1.| n : o + A ; +         o O   ",
"= @ @ 2 8 7 m @ @ ! @.J ; : h.2.: :       @ $ + + +   5 g 5 5 i m = $ @       | ..2 & 8 ! , @ * ; o./ S 9 r 8 > : , : @ ",
"& A F 8 2 * o     * * : 2 : r.@ , 2 : = = , z E - o @ %.: z & ,       $       v.J m $ 8 ; & g * S C g z z 9 1 ; & O 2 V ",
"* ! r : 8 ; * : =   + ; i i + o = 7 1 m i.I g g :   : S * r 8 = : * $ o o $ @.t.i 9 ; * $ $ ^ C 9 , , 1 8 5 : : = @ + i ",
"= C ; * 5 : = = : * o & ^ @ + * m g 7 S ^ E 8 l o + ^ = [ ; @ + + *   o ! * + I 7 9 $   & + 1 1 2 8 8 2 9 8 * = * @ @ : ",
"{ m 2 = : : : : : ;   o * o ; 8 ] 7 I m 8 = : @     S z = o * * o + : = 2     F 8 5 8 : C r m g 7 9 z 9 : , 8 ( $ o @ = ",
"$.S g r , @ + + - : =     @.m A m g +.8 = @         = : : 2 8 ; r 7 8 : * o   2 : 8 5 7 + = 8 8 * o o + $ $ I @ +   @ $ ",
"%.m S g 9 * @ = @ $ *   7 8 F ! E , ^ C 5           + & * @ = * , * o 9 @ o + = ; 1 8 r 8 r * o & , z g g = ; + + o + & ",
"+.9 S S 7 A : + @ * *   = o 9 / = o & @       o o                     *     2 ; 1 8 7 9 = + $ I W W S m m , 9 @ + O @ @ ",
"S 7 2 g 8 : $   & = $       %.S $             @ +     : C & + * * @ 1 :     A 2 , : 9 9 8 * m g p S z m S , 9 * @ & + & ",
"@ : * i $ m , 9 , $ +     +             + + o     * 1 C , F m 8 g 3.7 ; : @   % : 2 8 w m m Z g g m p p g 7 * p $ $ 2 8 ",
"  + @ = E m 9 @ v ; @   @   o                 = = o @ g 9 m 8 8 ..S E ; @ : @   * 7 6 g 9 g m m m C g g g , r r * & 8 ! ",
"@     + : A ^ *         @ = @ @ @           @ , = 1   = r Z g C g z 8 : 7 0.(   o 9 2 8 g 1 g m ^ r g g C : 7 i : @ : * ",
"      = =                 &       7 a.t.o.r O.+.2.I @ : ' [ ..^ L ..E v 5 9 ..@   $ , g : 5 9 9 9 7 m F W 1 m S 9 +     ",
"+   o + + o         @ 4.q.&.  + : | [ g g i ( z [ r & : Z Z ^ I o.F 5 8 * -.C +   o , : 1 [ 5 9 e 9 S Z L 1 Z F p @ o o ",
"8 i.N.i.{ S v 8 : @ d.: @.! @   2 ( : * $ @ * 9 ;   * : ' ..3.= [ + q.= , + + @     = : 5 5 7 g r : : 1 g 9 ; * 8 @ + o ",
"W f.r.7 l %.g + 1   J v g 8 y   @ # * * * & , = @   : $ ' g 7 8 L 2.F @ 1 i ;       + * ; * o             o + @ @ o o z ",
"g.E : = = = @ : m   g 8 7 2 : @ * * 7 1 1 , ; +       + 7 9.t.0.C : + : 2.@ o       F 1 @               o   o o + + + C ",
"5 5 = @ @ @ @ i 5   : = = * 9 * 7 : g 2 , , : : , @   o ..^ g = = @ @ @ @         r O.g g ..@         * r I C : @ @ & m ",
": * $ @ + @ @ @ =   2 = * , $ o * 8 : : : = = : 2 : +   o + = @ o o o o         S = , 9 g A , = 7 o.( o @ * @ * * + @ z ",
"* @ + @ + @ * O     8 g 7 * *   + = 7 : : : = : 7 : @ +   o o         o       * $ @ _ v [ m 8 @ @ @ @ o @ $ : : + o   * ",
", = @ $ + $ + @ +   , 7 , + +   $ 7 < , 1 : 1 1 : : @ * @                     z F / &.; +     o + + @ $ * @ $ @ o     o ",
"* @ * @ + @ o       2 i $ + @ $ : 7 : , 5 1 : : ; @ = * * +                 o [ @.( $ o @ + $ @ @ @ @ @ * @ $ +       o ",
"& $ @ $ @ o o o   @ 2 = @ @ 8 7 $ , 1 8 7 : = = +   $   i 8 o               ; ....: + % @ + $ $ $ $ + @ @ o o         + ",
"- * @ + + o o o     = * + * = i : o : 8 : * @             : 9.E O., _ 8.3.3.r L = = * * * $ * @ @ @ + + + + 9 z z , 5 C ",
"* $ +     @ : : 8.:     o & % * $ o o @ o             o r.+.7 8 8.9 -.: , ; g p : = * @ * @ $ @ + + + o & i.k.h.z.j.f.q.",
"= = A 1.q.3.( ! S ^                 : : + o + & & $   r.' , , [ @.: o * * , p r 1 = = @ * + + + + o o = 0.m = 1 = | _ 1 ",
"$ ( m A g = = : : =   = I :   * @.4...0.r..._ ^ 8 + o y.o.g : : *   o ; 5 , F ; ; : o   + + @ @ + + : M.9.9 = , m g m ; ",
"  + @ & 2 , * : : : + - E g @ @ 7 S , : , 5 7 , 1 m = @ g , 9 , 1 @     @ * * * * $ o     + @ @ o S B.3.r ' , $ 5 : * & ",
"  @ & &.S , = : : : o * 3.7 m 9 _ ^ , , : 7 8 : : 9 *   g $ _ 1 = * @ o $ @ @ @ @ + o + . + : @ S z.7.r.8 : 9 & * * * * ",
"    @ 2 2 , & * = = + @ ; @ * @ : 6.5 ; ; 2 , , , r :   @ C , p : : : = * $ @ O o + + + + @ * 6.n.0.8.S 2 = = ; : * * : ",
"      @ : 9 9 A g $ + m ; : = * * 8 5 8 , : 8 , 5 Z *   / p 8 : : * * * $ $ $ + o o + @ @ @ g.4.3.-.r.| = r @ * * * * $ ",
"o     @ m ^ 7 = +     A : v & @ $ * 8 5 5 5 8 8 g 8     A 9 1 : @ + $ * $ % $ @ + o + @ + | { ! I 1 = @.* $ @ = $ = $ @ ",
"@ @ , , 8 *         @   : * : $ : 1 i : 1 2 : : : @     8 : * $   + @ $ $ @ @ @ @ @ + @ = 2.$ , I A 8.$ $ * 5 9 * @ o + ",
"O + C : @ o             o 9 ^ +.+.C S i : & @ * $ o     o o o   o + + o o o       o @ @ r @ J +.{ I @ 7 $ @ , 2 5 + + + ",
"o             @ : *   +   = 8 & @   o + @ @ @ @ + $ $ @ ; + @ & @ $ * @ @ @ @ * 5 * @ : $ * : { : $ i * z & @ * @ + + + ",
"@ $ = ..{ 2 8 o.q.m @ ( @   @     @ * @ @ + @ ; @ @ : 1 : 1 8 = * * $ @ @ & *   7.v S + + @ 1 $ @ ; * = : : & * @ @ + + ",
"%.! A 1 3.8.0.4.2 ! @ J : + = @ * 5 &.@ : = @.%.o.y.9.@ , 2...J 7 $ g 5 @ * 1 = 2 *       : * 2 @ @ = ; : @ = @ @ $ o A ",
"1 : : : : : 7 g r g S &.u.i : J 2.6.{ r.k.k.e.A $ i.2 / 7 m , 1 @.* * 9 m 3.6.& i.0.@     _ * = O * : 2 r 1 @ + o     1 ",
"= : : : , , 1 : ; = I 4.@ o $ 2.[ y.^ * / 9 $ , -.9 @ : i + f.6.m : | v [ O.( ( -.6.+     1 + % + . = i 2 o       : 2 m ",
"r 1 2 , : 1 5 , = = 5 E : : + ( y.2 z * : : 8 , S * + O 8 * I 2.m * * o.2.1 t.( 4.v       o.: , o                 o     ",
": & : 1 9 : : g : ; o & +     8 : v * ; @ @ g %.8 +     + - : @.* ; & g.7.%.+ C _ 8 2     B.* 8 8 +       : ^ * o       ",
": : g ! C r 1 , = @ @ : i 9 o o + o     o   X             + : 8 * ; * g   @     -.F       7.m.M.k.u.;.q.y.2.r.f.y.! I 9 ",
": 9 I I I C g m i 2 ; = $ / ; o               X X X + + + + @ A S : * :         @ +       * ;.S : * y.8.0.d...h.z v r / ",
"i v [ I C I S 9 y i * : 9 : @ o             X + + + + @ + + + * 1 ; * +           + @   = 1 m F ^ = i.2.[ 0.o.i @ @ : ; ",
"g F C J z 5 9 i F C 9 & + + * $ o           + + + + @ @ @ + + + + @ @     o $           +   9 : ; + d.^ _ @ @ o   @ : E ",
"v m C m A g g V v i 5 + + @ g + + +     + . + + + + @ @ @ + + @ + . o i *.$.v z &           @ * : o 2.8 $ +       @ : A "
};
